<mxfile host="65bd71144e">
    <diagram id="kbJQ1Rrp4iuEvox9FZ_T" name="第 1 页">
        <mxGraphModel dx="1066" dy="1014" grid="0" gridSize="10" guides="1" tooltips="1" connect="1" arrows="1" fold="1" page="0" pageScale="1" pageWidth="827" pageHeight="1169" background="#FFFCE8" math="0" shadow="0">
            <root>
                <mxCell id="0"/>
                <mxCell id="1" parent="0"/>
                <mxCell id="36" value="" style="rounded=0;whiteSpace=wrap;html=1;fillColor=#dae8fc;strokeColor=#6c8ebf;" vertex="1" parent="1">
                    <mxGeometry x="200" y="40" width="560" height="320" as="geometry"/>
                </mxCell>
                <mxCell id="37" value="" style="rounded=0;whiteSpace=wrap;html=1;fillColor=#fff2cc;strokeColor=#d6b656;" vertex="1" parent="1">
                    <mxGeometry x="210" y="50" width="540" height="40" as="geometry"/>
                </mxCell>
                <mxCell id="38" value="" style="rounded=0;whiteSpace=wrap;html=1;direction=south;fillColor=#f8cecc;strokeColor=#b85450;" vertex="1" parent="1">
                    <mxGeometry x="210" y="110" width="100" height="240" as="geometry"/>
                </mxCell>
                <mxCell id="39" value="" style="rounded=0;whiteSpace=wrap;html=1;fillColor=#e1d5e7;strokeColor=#9673a6;" vertex="1" parent="1">
                    <mxGeometry x="340" y="110" width="410" height="240" as="geometry"/>
                </mxCell>
                <mxCell id="41" value="" style="ellipse;whiteSpace=wrap;html=1;rounded=0;sketch=1;curveFitting=1;jiggle=2;fillStyle=auto;fillColor=none;" vertex="1" parent="1">
                    <mxGeometry x="100" y="-65" width="760" height="530" as="geometry"/>
                </mxCell>
                <mxCell id="42" value="&lt;font style=&quot;font-size: 22px;&quot;&gt;&lt;b&gt;Block&lt;/b&gt;&lt;/font&gt;" style="text;html=1;strokeColor=none;fillColor=none;align=center;verticalAlign=middle;whiteSpace=wrap;rounded=0;sketch=1;fillStyle=auto;" vertex="1" parent="1">
                    <mxGeometry x="440" y="-95" width="60" height="30" as="geometry"/>
                </mxCell>
                <mxCell id="44" value="&lt;font color=&quot;#ff9933&quot; style=&quot;font-size: 22px;&quot;&gt;&lt;b&gt;Header Block&lt;/b&gt;&lt;/font&gt;" style="text;html=1;strokeColor=none;fillColor=none;align=center;verticalAlign=middle;whiteSpace=wrap;rounded=0;sketch=1;fillStyle=auto;" vertex="1" parent="1">
                    <mxGeometry x="395" y="55" width="170" height="30" as="geometry"/>
                </mxCell>
                <mxCell id="45" value="&lt;font color=&quot;#ff3333&quot; style=&quot;font-size: 22px;&quot;&gt;&lt;b style=&quot;&quot;&gt;Menu Block&lt;/b&gt;&lt;/font&gt;" style="text;html=1;strokeColor=none;fillColor=none;align=center;verticalAlign=middle;whiteSpace=wrap;rounded=0;sketch=1;fillStyle=auto;" vertex="1" parent="1">
                    <mxGeometry x="213.5" y="162.5" width="93" height="75" as="geometry"/>
                </mxCell>
                <mxCell id="46" value="&lt;font color=&quot;#7f00ff&quot; style=&quot;font-size: 22px;&quot;&gt;&lt;b style=&quot;&quot;&gt;Main Block&lt;/b&gt;&lt;/font&gt;" style="text;html=1;strokeColor=none;fillColor=none;align=center;verticalAlign=middle;whiteSpace=wrap;rounded=0;sketch=1;fillStyle=auto;" vertex="1" parent="1">
                    <mxGeometry x="395" y="202" width="170" height="30" as="geometry"/>
                </mxCell>
            </root>
        </mxGraphModel>
    </diagram>
</mxfile>